<svg width="28" height="28" viewBox="0 0 28 28" fill="none" xmlns="http://www.w3.org/2000/svg">
<path d="M14 0C6.27724 0 0 6.27724 0 14C0 21.7228 6.27724 28 14 28C21.7228 28 28 21.7228 28 14C28 6.27724 21.7228 0 14 0ZM14 26.7541C6.97205 26.7541 1.24586 21.0359 1.24586 14C1.24586 6.97205 6.96406 1.24586 14 1.24586C21.0359 1.24586 26.7541 6.97205 26.7541 14C26.7541 21.0359 21.028 26.7541 14 26.7541Z" fill="#1D3D73"/>
<path d="M14 2.24414C7.50713 2.24414 2.24416 7.50712 2.24416 13.992C2.24416 14.2476 2.25214 14.5031 2.26811 14.7587L12.8659 4.16085L13.9201 3.10666L14.0719 2.95492L25.7319 14.6149C25.7399 14.4073 25.7479 14.1996 25.7479 13.992C25.7558 7.50712 20.4929 2.24414 14 2.24414Z" fill="#1D3D73"/>
<path d="M16.7473 14.2316C17.2664 14.1997 17.6258 14.024 17.7775 13.7125C17.9213 13.425 17.8574 13.0975 17.7296 12.9059C17.6098 12.7302 17.4341 12.6024 17.2265 12.5625C17.0188 12.5145 16.8032 12.5545 16.6275 12.6743C16.332 12.8659 15.9487 13.3851 15.725 14.1198C16.0445 14.2076 16.3799 14.2476 16.7473 14.2316Z" fill="#1D3D73"/>
<path d="M11.2527 15.8528C10.7336 15.8848 10.3742 16.0605 10.2225 16.3719C10.0787 16.6594 10.1426 16.9869 10.2704 17.1786C10.3902 17.3543 10.5659 17.482 10.7735 17.522C10.9812 17.5699 11.1968 17.53 11.3725 17.4102C11.668 17.2185 12.0513 16.6994 12.275 15.9646C11.9555 15.8768 11.6201 15.8289 11.2527 15.8528Z" fill="#1D3D73"/>
<path d="M17.0428 17.6497C17.3622 17.6338 17.6178 17.4102 17.7216 17.2105C17.8175 17.0188 17.8334 16.8032 17.7695 16.6035C17.7057 16.4039 17.5619 16.2362 17.3702 16.1403C17.0268 15.9646 16.3719 15.9167 15.6691 16.0764C15.749 16.3879 15.8768 16.7074 16.0844 17.0188C16.364 17.4501 16.6994 17.6657 17.0428 17.6497Z" fill="#1D3D73"/>
<path d="M13.3292 17.8254C13.0975 18.2966 13.0736 18.6959 13.2573 18.9755C13.433 19.239 13.7524 19.3508 13.976 19.3349C14.1917 19.3269 14.3833 19.231 14.5271 19.0713C14.6709 18.9116 14.7427 18.7039 14.7347 18.4963C14.7108 18.1129 14.4313 17.514 13.9361 16.9869C13.7045 17.2265 13.4969 17.498 13.3292 17.8254Z" fill="#1D3D73"/>
<path d="M13.4649 11.0051C13.3212 11.1648 13.2493 11.3725 13.2573 11.5801C13.2812 11.9635 13.5607 12.5545 14.0559 13.0816C14.2875 12.8579 14.4951 12.5864 14.6629 12.251C14.8945 11.7798 14.9184 11.3805 14.7347 11.101C14.559 10.8374 14.2396 10.7256 14.016 10.7416C13.8083 10.7496 13.6087 10.8454 13.4649 11.0051Z" fill="#1D3D73"/>
<path d="M2.59555 16.8431C4.9595 19.9578 9.01654 22.178 13.7604 22.5533C17.7136 22.8648 21.3873 21.8346 24.1426 19.9258C24.7176 18.9435 25.1569 17.8654 25.4284 16.7233L14.0719 5.36679L2.59555 16.8431ZM15.3417 10.7096C15.5334 11.0051 15.7809 11.636 15.3098 12.5784C15.1261 12.9458 14.8865 13.2732 14.599 13.5607C14.7427 13.6646 14.8945 13.7684 15.0622 13.8483C15.3098 13.0656 15.757 12.3868 16.2442 12.0673C16.5796 11.8437 16.9869 11.7718 17.3862 11.8517C17.7855 11.9315 18.1209 12.1711 18.3446 12.5066C18.6321 12.9538 18.672 13.5528 18.4324 14.024C18.2727 14.3354 17.8494 14.8705 16.8032 14.9344C16.7313 14.9344 16.6674 14.9424 16.5956 14.9424C16.2601 14.9424 15.9247 14.8945 15.5973 14.8146C15.5813 14.9823 15.5733 15.166 15.5733 15.3577C16.3799 15.182 17.1865 15.2299 17.6977 15.4854C18.057 15.6691 18.3286 15.9806 18.4484 16.3639C18.5762 16.7473 18.5442 17.1626 18.3605 17.522C18.1209 18.0011 17.6178 18.3206 17.0907 18.3525C17.0667 18.3525 17.0428 18.3525 17.0108 18.3525C16.6435 18.3525 16.0285 18.2088 15.4855 17.3942C15.2618 17.0508 15.0941 16.6754 14.9903 16.2841C14.8226 16.356 14.6629 16.4438 14.5111 16.5396C15.0702 17.1466 15.4296 17.8734 15.4615 18.4484C15.4855 18.8557 15.3497 19.239 15.0782 19.5425C14.8066 19.846 14.4153 20.0456 13.9521 20.0456C13.4489 20.0456 12.9538 19.7821 12.6743 19.3588C12.4826 19.0633 12.235 18.4324 12.7062 17.49C12.8899 17.1226 13.1295 16.7952 13.417 16.5077C13.2732 16.4039 13.1215 16.3 12.9538 16.2202C12.7062 17.0108 12.259 17.6817 11.7718 18.0011C11.5242 18.1609 11.2367 18.2487 10.9492 18.2487C10.8454 18.2487 10.7416 18.2407 10.6298 18.2168C10.2305 18.1369 9.89504 17.8973 9.67142 17.5619C9.38391 17.1147 9.34398 16.5157 9.58357 16.0445C9.7433 15.733 10.1586 15.1979 11.2128 15.134C11.6201 15.1101 12.0274 15.158 12.4187 15.2618C12.4347 15.0941 12.4427 14.9104 12.4427 14.7188C12.1232 14.7906 11.7958 14.8226 11.4923 14.8226C11.0371 14.8226 10.6218 14.7427 10.3103 14.583C9.5676 14.2076 9.26412 13.2892 9.64746 12.5465C9.88705 12.0673 10.3902 11.7479 10.9173 11.7159C11.2687 11.6919 11.9395 11.7958 12.5225 12.6743C12.7461 13.0177 12.9139 13.393 13.0177 13.7844C13.1694 13.7205 13.3371 13.6326 13.4969 13.5288C12.9378 12.9218 12.5784 12.1951 12.5465 11.6201C12.5225 11.2128 12.6583 10.8294 12.9298 10.5259C13.2014 10.2225 13.5687 10.0468 13.976 10.0228C14.5111 9.99885 15.0462 10.2624 15.3417 10.7096Z" fill="#1D3D73"/>
<path d="M10.9572 12.4267C10.6378 12.4427 10.3822 12.6663 10.2784 12.866C10.0787 13.2573 10.2385 13.7444 10.6298 13.9441C10.9412 14.1038 11.5881 14.1757 12.3309 14C12.251 13.6885 12.1232 13.3691 11.9156 13.0576C11.6361 12.6343 11.3006 12.4107 10.9572 12.4267Z" fill="#1D3D73"/>
<path d="M13.1455 14.5031C13.1694 14.8306 13.1614 15.174 13.1135 15.5174C13.417 15.6612 13.7045 15.8369 13.9681 16.0525C14.2396 15.8608 14.5351 15.7011 14.8625 15.5813C14.8386 15.2539 14.8466 14.9104 14.8945 14.567C14.591 14.4233 14.3035 14.2476 14.0399 14.032C13.7604 14.2156 13.4649 14.3754 13.1455 14.5031Z" fill="#1D3D73"/>
<path d="M15.1341 24.8853C9.2721 24.4221 4.46435 21.1398 2.59555 16.8511C3.87336 21.9623 8.48945 25.7558 14 25.7558C15.6292 25.7558 17.1865 25.4204 18.6001 24.8214C17.482 24.9492 16.324 24.9732 15.1341 24.8853Z" fill="#1D3D73"/>
</svg>
